<svg width="256" height="256" viewBox="0 0 256 256" xmlns="http://www.w3.org/2000/svg"><title>CHIP Icon</title><path d="M76.192 98.857c0 12.524 10.157 22.675 22.68 22.675 3.4 0 6.598-.798 9.492-2.14 11.35 7.875 32.912 16.388 73.25 16.388h25.23v71.063H48.942V48.94h157.902v71.065h-25.23c-34.64 0-52.777-6.58-61.96-12.11a22.574 22.574 0 0 0 1.9-9.038c0-12.53-10.157-22.68-22.68-22.68-12.525 0-22.682 10.15-22.682 22.68zM247.895 82.06a7.89 7.89 0 0 0 0-15.78h-25.27V41.05a7.89 7.89 0 0 0-7.89-7.89h-25.23V7.89a7.89 7.89 0 0 0-15.78 0v25.27h-37.94V7.89a7.89 7.89 0 0 0-15.78 0v25.27H82.06V7.89a7.89 7.89 0 0 0-15.78 0v25.27H41.053c-4.352 0-7.885 3.534-7.885 7.89v25.23H7.89a7.89 7.89 0 0 0 0 15.78h25.277v37.945H7.89a7.89 7.89 0 0 0-7.89 7.89c0 4.352 3.533 7.885 7.89 7.885h25.277v37.944H7.89a7.89 7.89 0 0 0 0 15.78h25.277v25.23c0 4.357 3.533 7.89 7.885 7.89h25.23v25.27a7.89 7.89 0 0 0 15.78 0v-25.27h37.943v25.27a7.89 7.89 0 0 0 15.78 0v-25.27h37.94v25.27a7.89 7.89 0 0 0 15.78 0v-25.27h25.23a7.89 7.89 0 0 0 7.89-7.89v-25.23h25.27a7.89 7.89 0 0 0 0-15.78h-25.27V135.78h25.27c4.358 0 7.89-3.533 7.89-7.885a7.89 7.89 0 0 0-7.89-7.89h-25.27V82.06h25.27z" fill="#FFF" fill-rule="evenodd"/></svg>